<svg xmlns="http://www.w3.org/2000/svg" width="420" height="800" viewBox="0 0 420 800">
  <style>
    .bg{fill:#ffffff}
    .header{fill:#0b2545}
    .htext{font:700 16px sans-serif;fill:#fff}
    .kcard{fill:#fff;stroke:#eef2f6}
    .muted{font:400 12px sans-serif;fill:#6b7280}
  </style>
  <rect class="bg" width="420" height="800"/>
  <rect class="header" x="0" y="0" width="420" height="64"/>
  <text x="16" y="40" class="htext">Servis</text>

  <g transform="translate(16,80)">
    <!-- compact colored bubbles for mobile -->
    <rect x="0" y="0" width="110" height="56" rx="12" fill="#3b82f6"/>
    <text x="18" y="36" font-weight="700" fill="#fff">4</text>
    <text x="42" y="36" font-size="11" fill="#fff">Nové</text>

    <rect x="128" y="0" width="110" height="56" rx="12" fill="#10b981"/>
    <text x="146" y="36" font-weight="700" fill="#fff">1</text>
    <text x="170" y="36" font-size="11" fill="#fff">V procese</text>

    <rect x="256" y="0" width="110" height="56" rx="12" fill="#ff7a59"/>
    <text x="274" y="36" font-weight="700" fill="#fff">0</text>
    <text x="298" y="36" font-size="11" fill="#fff">Dokončené</text>
    <text x="16" y="78" class="muted">Rýchle akcie a search</text>
  </g>

  <g transform="translate(16,188)">
    <rect class="kcard" x="0" y="0" width="388" height="56" rx="8"/>
    <text x="16" y="36" class="muted">radko • olpran • #9</text>
  </g>

  <g transform="translate(16,256)">
    <rect class="kcard" x="0" y="0" width="388" height="56" rx="8"/>
    <text x="16" y="36" class="muted">Zuzana • sworks epic • #8</text>
  </g>

  <g transform="translate(16,324)">
    <rect class="kcard" x="0" y="0" width="388" height="56" rx="8"/>
    <text x="16" y="36" class="muted">Boris • SCOTT • #7</text>
  </g>

</svg>